<?xml version="1.0" encoding="iso-8859-1"?>
<!-- Generator: Adobe Illustrator 18.1.1, SVG Export Plug-In . SVG Version: 6.00 Build 0)  -->
<svg version="1.1" id="Capa_1" xmlns="http://www.w3.org/2000/svg" xmlns:xlink="http://www.w3.org/1999/xlink" x="0px" y="0px"
	 viewBox="0 0 369.946 369.946" style="enable-background:new 0 0 369.946 369.946;" xml:space="preserve">
<g>
	<g>
		<path style="fill:#010002;" d="M184.973,0C82.975,0,0,82.975,0,184.973s82.975,184.973,184.973,184.973
			s184.973-82.975,184.973-184.973S286.971,0,184.973,0z M184.973,358.012c-95.41,0-173.039-77.629-173.039-173.039
			S89.563,11.934,184.973,11.934s173.039,77.629,173.039,173.039S280.383,358.012,184.973,358.012z"/>
		<path style="fill:#010002;" d="M256.689,105.178l-97.039,52.037c-0.107,0.06-0.167,0.173-0.269,0.239
			c-0.394,0.245-0.692,0.573-1.02,0.907c-0.328,0.328-0.662,0.627-0.907,1.02c-0.066,0.101-0.179,0.161-0.239,0.268l-52.043,97.045
			c-1.247,2.321-0.823,5.179,1.038,7.041c1.146,1.146,2.673,1.748,4.219,1.748c0.961,0,1.927-0.233,2.822-0.71l97.045-52.043
			c0.107-0.06,0.167-0.173,0.268-0.239c0.394-0.245,0.692-0.573,1.02-0.907c0.328-0.328,0.662-0.627,0.907-1.02
			c0.066-0.101,0.179-0.161,0.239-0.268l52.037-97.039c1.247-2.321,0.823-5.179-1.038-7.041
			C261.868,104.349,259.016,103.931,256.689,105.178z M125.036,244.91l38.904-72.539l33.641,33.641L125.036,244.91z
			 M206.012,197.569l-33.641-33.641l72.539-38.904L206.012,197.569z"/>
	</g>
</g>
<g>
</g>
<g>
</g>
<g>
</g>
<g>
</g>
<g>
</g>
<g>
</g>
<g>
</g>
<g>
</g>
<g>
</g>
<g>
</g>
<g>
</g>
<g>
</g>
<g>
</g>
<g>
</g>
<g>
</g>
</svg>
