<?xml version="1.0" ?><svg id="Layer_1" style="enable-background:new 0 0 24 24;" version="1.1" viewBox="0 0 24 24" xml:space="preserve" xmlns="http://www.w3.org/2000/svg" xmlns:xlink="http://www.w3.org/1999/xlink"><path d="M12,1.417C6.165,1.417,1.417,6.164,1.417,12S6.165,22.583,12,22.583S22.583,17.836,22.583,12S17.835,1.417,12,1.417z   M12,21.407c-5.187,0-9.407-4.22-9.407-9.407S6.813,2.593,12,2.593s9.407,4.22,9.407,9.407S17.187,21.407,12,21.407z"/><path d="M16.367,6.876L9.715,9.371C9.556,9.43,9.431,9.556,9.371,9.715l-2.495,6.652c-0.081,0.216-0.028,0.459,0.135,0.622  c0.112,0.112,0.262,0.172,0.416,0.172c0.069,0,0.14-0.012,0.207-0.037l6.652-2.495c0.158-0.06,0.284-0.185,0.344-0.344l2.495-6.652  c0.081-0.216,0.028-0.459-0.135-0.622C16.827,6.848,16.583,6.796,16.367,6.876z M13.622,13.622l-5.191,1.946l1.946-5.191  l5.191-1.946L13.622,13.622z"/></svg>