<?xml version="1.0" encoding="iso-8859-1"?>
<!-- Generator: Adobe Illustrator 16.0.0, SVG Export Plug-In . SVG Version: 6.00 Build 0)  -->
<!DOCTYPE svg PUBLIC "-//W3C//DTD SVG 1.1//EN" "http://www.w3.org/Graphics/SVG/1.1/DTD/svg11.dtd">
<svg version="1.1" id="Capa_1" xmlns="http://www.w3.org/2000/svg" xmlns:xlink="http://www.w3.org/1999/xlink" x="0px" y="0px"
	 width="326.916px" height="326.916px" viewBox="0 0 326.916 326.916" style="enable-background:new 0 0 326.916 326.916;"
	 xml:space="preserve">
<g>
	<g>
		<path style="fill:#030303;" d="M163.981,306.068L25.668,180.198c-4.42-4.712-8.394-9.938-11.802-15.53
			c-3.362-5.506-6.161-11.384-8.328-17.474C1.867,136.858,0,126.203,0,115.51c0-52.2,42.462-94.662,94.662-94.662
			c26.277,0,51.059,10.861,68.799,29.64c17.731-18.778,42.524-29.64,68.799-29.64c52.194,0,94.656,42.462,94.656,94.662
			c0,10.51-1.802,21.002-5.353,31.177c-2.264,6.476-5.243,12.731-8.88,18.575c-3.048,4.918-6.564,9.578-10.458,13.86l-0.749,0.749
			L163.981,306.068z M42.445,163.844l121.473,110.501l121.331-111.358c2.802-3.125,5.335-6.507,7.536-10.064
			c2.733-4.397,4.975-9.097,6.679-13.963c2.676-7.688,4.037-15.582,4.037-23.455c0-39.283-31.958-71.241-71.235-71.241
			c-23.713,0-45.802,11.751-59.09,31.438l-9.709,14.378l-9.709-14.373C140.46,56.02,118.374,44.263,94.662,44.263
			c-39.277,0-71.241,31.958-71.241,71.241c0,8.011,1.407,16.024,4.18,23.835c1.63,4.575,3.737,8.995,6.261,13.134
			C36.355,156.565,39.243,160.385,42.445,163.844z"/>
	</g>
</g>
<g>
</g>
<g>
</g>
<g>
</g>
<g>
</g>
<g>
</g>
<g>
</g>
<g>
</g>
<g>
</g>
<g>
</g>
<g>
</g>
<g>
</g>
<g>
</g>
<g>
</g>
<g>
</g>
<g>
</g>
</svg>
