<?xml version="1.0" standalone="no"?>
<!DOCTYPE svg PUBLIC "-//W3C//DTD SVG 20010904//EN"
 "http://www.w3.org/TR/2001/REC-SVG-20010904/DTD/svg10.dtd">
<svg version="1.0" xmlns="http://www.w3.org/2000/svg"
 width="512.000000pt" height="173.000000pt" viewBox="0 0 512.000000 173.000000"
 preserveAspectRatio="xMidYMid meet">
<metadata>
Created by potrace 1.11, written by Peter Selinger 2001-2013
</metadata>
<g transform="translate(0.000000,173.000000) scale(0.100000,-0.100000)"
fill="#000000" stroke="none">
<path d="M475 1720 c-34 -13 -90 -83 -123 -152 -45 -96 -65 -181 -65 -279 0
-71 4 -94 27 -145 15 -32 39 -72 54 -88 34 -36 97 -65 140 -66 27 0 32 -4 32
-25 0 -14 -9 -47 -19 -75 -44 -115 -133 -180 -250 -180 -83 0 -143 27 -165 74
-27 57 -21 92 25 148 31 36 43 60 47 93 4 40 2 46 -19 53 -57 21 -128 -32
-150 -110 -6 -24 -9 -69 -6 -101 15 -164 138 -248 342 -234 112 8 170 30 231
92 64 63 91 134 104 264 11 110 13 531 4 644 -7 76 -7 77 -38 81 -71 11 -152
14 -171 6z m62 -142 c6 -8 8 -106 5 -245 -4 -216 -6 -233 -23 -238 -33 -11
-73 17 -99 70 -23 45 -25 62 -25 170 0 130 11 177 52 225 26 32 72 41 90 18z"/>
<path d="M1746 1693 c-3 -8 -6 -38 -6 -66 0 -29 -3 -82 -7 -119 l-6 -68 -46 0
c-45 0 -118 -14 -128 -23 -2 -3 0 -14 6 -25 10 -18 31 -26 139 -48 l22 -4 -2
-238 c-3 -208 -1 -245 16 -299 32 -106 105 -170 179 -156 37 7 86 60 119 128
15 33 28 51 28 40 0 -33 47 -122 72 -139 13 -9 48 -20 77 -26 86 -16 136 20
187 136 l16 39 9 -29 c11 -40 65 -93 101 -100 39 -8 91 15 118 52 l23 31 21
-42 c28 -54 58 -75 130 -88 53 -9 62 -9 85 9 14 10 38 41 53 68 l28 49 0 -59
0 -60 -74 -73 c-82 -80 -142 -185 -171 -298 -49 -193 13 -278 204 -279 82 -1
83 -1 111 32 47 56 54 98 60 352 l5 235 32 0 c18 0 38 6 45 13 11 11 9 17 -11
33 -13 10 -35 19 -49 19 l-25 0 5 163 c4 125 9 170 22 195 l17 33 -33 13 -33
14 0 90 c0 86 -2 92 -28 120 -15 16 -47 34 -70 41 -23 6 -63 21 -89 33 -55 25
-84 20 -132 -22 -68 -60 -102 -178 -115 -395 -8 -139 -23 -188 -61 -200 -28
-9 -47 9 -60 54 -13 49 -13 162 2 218 11 44 10 47 -14 67 -23 19 -26 30 -30
104 -6 105 -21 126 -114 164 -186 76 -279 -8 -314 -286 -5 -43 -14 -84 -19
-90 -5 -6 -17 -42 -25 -79 -20 -84 -48 -142 -82 -163 -24 -16 -26 -16 -45 3
-30 30 -39 124 -33 333 7 262 3 247 70 256 31 3 85 7 120 7 69 1 79 10 44 42
-16 14 -43 20 -118 24 l-97 6 2 70 c1 39 5 92 8 118 6 47 5 48 -27 61 -56 22
-106 27 -112 9z m1201 -417 c26 -23 28 -29 27 -98 -2 -135 -28 -287 -61 -353
-23 -46 -64 -85 -90 -85 -13 0 -30 11 -40 27 -27 40 -26 304 1 383 26 78 54
120 90 136 41 18 41 18 73 -10z m-579 -21 c27 -35 37 -108 18 -137 -8 -13 -19
-71 -25 -130 -15 -134 -35 -204 -71 -240 -42 -41 -77 -38 -97 10 -39 91 -23
354 28 453 36 71 109 93 147 44z m602 -1008 c-18 -116 -61 -176 -116 -163 -52
13 -68 107 -39 221 22 83 75 192 121 245 l39 44 3 -139 c1 -77 -2 -171 -8
-208z"/>
<path d="M3725 1366 c-51 -53 -81 -133 -96 -261 -14 -120 -54 -278 -82 -329
-17 -31 -28 -41 -47 -41 -40 0 -53 55 -47 205 4 91 11 145 28 199 l23 74 -22
18 c-14 11 -48 20 -90 24 -37 3 -74 7 -82 8 -10 2 -15 15 -15 42 -1 57 -11 68
-52 62 -61 -10 -61 -12 -56 -180 4 -98 1 -179 -7 -227 -18 -106 -17 -114 3
-118 27 -6 53 66 74 208 l19 125 29 0 30 0 -4 -130 c-6 -255 47 -385 157 -385
46 0 86 31 115 90 l25 49 16 -43 c9 -23 29 -54 44 -68 33 -31 126 -54 164 -39
33 12 76 65 103 124 l21 49 19 -42 c48 -107 158 -115 223 -17 l27 41 6 -52 c9
-66 20 -79 75 -88 87 -13 87 -12 107 138 17 135 43 248 58 248 4 0 9 -67 11
-149 3 -129 6 -152 22 -170 39 -43 136 -36 136 10 0 35 40 180 73 264 l32 80
5 -140 c4 -124 8 -146 30 -189 14 -28 37 -59 52 -70 37 -27 108 -27 144 0 77
57 157 304 99 304 -18 0 -30 -24 -40 -75 -23 -128 -100 -201 -135 -127 -21 43
-24 215 -5 297 30 130 31 120 -9 150 -25 19 -53 30 -85 33 l-47 4 -26 -58
c-15 -33 -48 -120 -75 -194 l-48 -135 -3 152 -3 153 -29 15 c-80 41 -122 4
-169 -151 -18 -60 -34 -113 -36 -119 -2 -5 -4 76 -4 182 -1 119 -5 194 -11
198 -6 4 -35 9 -64 12 l-54 6 -4 -189 c-4 -159 -8 -199 -26 -255 -39 -117 -89
-153 -118 -84 -17 41 -19 192 -3 250 10 36 9 41 -14 60 -21 17 -25 32 -31 99
-8 89 -23 127 -58 142 -105 49 -123 54 -175 54 -54 0 -59 -2 -98 -44z m195
-96 c33 -18 55 -131 30 -156 -5 -5 -15 -57 -20 -114 -14 -136 -36 -213 -71
-251 -37 -39 -78 -37 -98 5 -34 72 -32 275 4 400 30 101 93 149 155 116z"/>
<path d="M806 1332 c-8 -14 -29 -488 -24 -544 7 -66 29 -88 87 -88 25 0 51 4
57 8 7 4 19 45 28 92 19 93 49 191 71 230 13 23 14 14 15 -95 0 -133 14 -179
60 -203 33 -17 96 -9 132 18 30 22 30 22 44 2 32 -46 170 -73 267 -52 73 15
117 50 117 94 0 43 -15 62 -119 146 -104 84 -121 106 -121 155 0 72 89 115
141 69 24 -22 45 -17 74 17 21 25 25 40 23 73 -3 34 -8 43 -33 55 -56 27 -239
-22 -304 -82 -52 -48 -64 -122 -31 -186 15 -31 17 -40 6 -44 -7 -3 -16 -25
-20 -48 -16 -101 -69 -170 -105 -135 -13 14 -16 44 -18 180 -1 125 -5 171 -17
194 -17 33 -56 48 -86 32 -25 -13 -65 -82 -101 -173 l-28 -72 -1 162 c0 157
-1 163 -22 177 -31 19 -85 29 -92 18z m669 -475 c24 -21 45 -46 48 -57 15 -56
-67 -72 -131 -25 -21 15 -49 35 -65 44 -17 10 -25 21 -21 31 3 8 11 40 17 71
l11 57 50 -42 c27 -22 68 -58 91 -79z"/>
</g>
</svg>
