<?xml version="1.0" encoding="iso-8859-1"?>
<!-- Generator: Adobe Illustrator 19.0.0, SVG Export Plug-In . SVG Version: 6.00 Build 0)  -->
<svg version="1.1" id="Capa_1" xmlns="http://www.w3.org/2000/svg" xmlns:xlink="http://www.w3.org/1999/xlink" x="0px" y="0px"
	 viewBox="0 0 512 512" style="enable-background:new 0 0 512 512;" xml:space="preserve">
<g>
	<g>
		<path d="M256,0C114.842,0,0,114.842,0,256s114.842,256,256,256s256-114.842,256-256S397.158,0,256,0z M256,494.933
			C124.254,494.933,17.067,387.746,17.067,256S124.254,17.067,256,17.067S494.933,124.254,494.933,256S387.746,494.933,256,494.933z
			"/>
	</g>
</g>
<g>
	<g>
		<path d="M256,42.667C138.368,42.667,42.667,138.368,42.667,256S138.368,469.333,256,469.333S469.333,373.632,469.333,256
			S373.632,42.667,256,42.667z M256,452.267c-108.22,0-196.267-88.038-196.267-196.267S147.78,59.733,256,59.733
			S452.267,147.772,452.267,256S364.22,452.267,256,452.267z"/>
	</g>
</g>
<g>
	<g>
		<path d="M256,76.8c-4.71,0-8.533,3.814-8.533,8.533v25.6c0,4.719,3.823,8.533,8.533,8.533s8.533-3.814,8.533-8.533v-25.6
			C264.533,80.614,260.71,76.8,256,76.8z"/>
	</g>
</g>
<g>
	<g>
		<path d="M256,392.533c-4.71,0-8.533,3.814-8.533,8.533v25.6c0,4.719,3.823,8.533,8.533,8.533s8.533-3.814,8.533-8.533v-25.6
			C264.533,396.348,260.71,392.533,256,392.533z"/>
	</g>
</g>
<g>
	<g>
		<path d="M426.667,247.467h-25.6c-4.71,0-8.533,3.814-8.533,8.533s3.823,8.533,8.533,8.533h25.6c4.71,0,8.533-3.814,8.533-8.533
			S431.377,247.467,426.667,247.467z"/>
	</g>
</g>
<g>
	<g>
		<path d="M110.933,247.467h-25.6c-4.71,0-8.533,3.814-8.533,8.533s3.823,8.533,8.533,8.533h25.6c4.71,0,8.533-3.814,8.533-8.533
			S115.644,247.467,110.933,247.467z"/>
	</g>
</g>
<g>
	<g>
		<path d="M256,221.867c-18.825,0-34.133,15.309-34.133,34.133c0,18.825,15.309,34.133,34.133,34.133
			c18.825,0,34.133-15.309,34.133-34.133C290.133,237.175,274.825,221.867,256,221.867z M256,273.067
			c-9.412,0-17.067-7.654-17.067-17.067c0-9.412,7.654-17.067,17.067-17.067c9.412,0,17.067,7.654,17.067,17.067
			C273.067,265.412,265.412,273.067,256,273.067z"/>
	</g>
</g>
<g>
	<g>
		<path d="M159.454,147.388L142.566,130.5c-3.328-3.337-8.738-3.337-12.066,0c-3.328,3.336-3.328,8.73,0,12.066l16.888,16.887
			c1.664,1.664,3.849,2.5,6.033,2.5c2.185,0,4.369-0.828,6.033-2.5C162.79,156.117,162.79,150.724,159.454,147.388z"/>
	</g>
</g>
<g>
	<g>
		<path d="M381.5,369.434l-16.887-16.887c-3.328-3.337-8.73-3.337-12.066,0s-3.337,8.73,0,12.066l16.887,16.887
			c1.664,1.664,3.849,2.5,6.033,2.5c2.185,0,4.369-0.836,6.033-2.5C384.828,378.163,384.828,372.77,381.5,369.434z"/>
	</g>
</g>
<g>
	<g>
		<path d="M372.966,139.034c-2.5-2.5-6.298-3.217-9.523-1.749L210.27,205.978c-2.56,1.135-4.395,3.473-4.898,6.238
			c-0.512,2.765,0.375,5.598,2.355,7.578l24.132,24.141c3.2,3.2,8.875,3.208,12.075,0c6.443-6.451,17.681-6.451,24.132,0
			c3.226,3.226,5.001,7.509,5.001,12.066c0,4.557-1.775,8.841-4.992,12.066c-1.604,1.596-2.5,3.763-2.5,6.033
			c0,2.261,0.896,4.429,2.5,6.033l24.132,24.141c1.613,1.613,3.789,2.5,6.033,2.5c0.512,0,1.024-0.051,1.545-0.145
			c2.756-0.503,5.086-2.338,6.238-4.898l68.693-153.173C376.166,145.323,375.467,141.534,372.966,139.034z M295.518,283.452
			l-10.103-10.112c3.081-5.188,4.719-11.136,4.719-17.34c0-9.114-3.55-17.69-10.001-24.124
			c-10.829-10.829-28.629-12.885-41.481-5.282l-10.103-10.103l121.429-54.46L295.518,283.452z"/>
	</g>
</g>
<g>
	<g>
		<path d="M304.273,292.207l-24.132-24.141c-3.2-3.2-8.866-3.2-12.075,0c-6.443,6.451-17.681,6.451-24.132,0
			c-3.226-3.226-5.001-7.509-5.001-12.066c0-4.557,1.775-8.841,4.992-12.066c1.604-1.596,2.5-3.763,2.5-6.033
			c0-2.261-0.896-4.429-2.5-6.033l-24.132-24.141c-1.98-1.98-4.804-2.842-7.578-2.355c-2.756,0.503-5.086,2.338-6.238,4.898
			l-68.693,153.173c-1.451,3.234-0.751,7.023,1.749,9.523c1.63,1.63,3.814,2.5,6.033,2.5c1.178,0,2.372-0.239,3.49-0.751
			l153.173-68.693c2.56-1.135,4.395-3.473,4.898-6.238C307.14,297.02,306.253,294.187,304.273,292.207z M162.022,349.969
			l54.46-121.421l10.104,10.112c-3.081,5.188-4.719,11.136-4.719,17.34c0,9.114,3.55,17.69,10.001,24.124
			c10.829,10.829,28.629,12.885,41.481,5.282l10.103,10.103L162.022,349.969z"/>
	</g>
</g>
<g>
</g>
<g>
</g>
<g>
</g>
<g>
</g>
<g>
</g>
<g>
</g>
<g>
</g>
<g>
</g>
<g>
</g>
<g>
</g>
<g>
</g>
<g>
</g>
<g>
</g>
<g>
</g>
<g>
</g>
</svg>
