<?xml version="1.0" ?><svg style="enable-background:new 0 0 512 512;" version="1.1" viewBox="0 0 512 512" xml:space="preserve" xmlns="http://www.w3.org/2000/svg" xmlns:xlink="http://www.w3.org/1999/xlink"><style type="text/css">
	.st0{fill:#231F20;}
</style><g id="Edges"/><g id="Symbol"><g><path class="st0" d="M257.2,54.6c65.7,0,73.5,0.3,99.4,1.4c24,1.1,37,5.1,45.7,8.5c11.5,4.5,19.7,9.8,28.3,18.4    c8.6,8.6,13.9,16.8,18.4,28.3c3.4,8.7,7.4,21.7,8.5,45.7c1.2,25.9,1.4,33.7,1.4,99.4s-0.3,73.5-1.4,99.4c-1.1,24-5.1,37-8.5,45.7    c-4.5,11.5-9.8,19.7-18.4,28.3c-8.6,8.6-16.8,13.9-28.3,18.4c-8.7,3.4-21.7,7.4-45.7,8.5c-25.9,1.2-33.7,1.4-99.4,1.4    s-73.5-0.3-99.4-1.4c-24-1.1-37-5.1-45.7-8.5c-11.5-4.5-19.7-9.8-28.3-18.4c-8.6-8.6-13.9-16.8-18.4-28.3    c-3.4-8.7-7.4-21.7-8.5-45.7c-1.2-25.9-1.4-33.7-1.4-99.4s0.3-73.5,1.4-99.4c1.1-24,5.1-37,8.5-45.7c4.5-11.5,9.8-19.7,18.4-28.3    c8.6-8.6,16.8-13.9,28.3-18.4c8.7-3.4,21.7-7.4,45.7-8.5C183.8,54.8,191.5,54.6,257.2,54.6 M257.2,10.3    c-66.8,0-75.2,0.3-101.4,1.5c-26.2,1.2-44.1,5.4-59.7,11.4c-16.2,6.3-29.9,14.7-43.6,28.4C38.8,65.2,30.4,79,24.1,95.1    c-6.1,15.6-10.2,33.5-11.4,59.7c-1.2,26.2-1.5,34.6-1.5,101.4c0,66.8,0.3,75.2,1.5,101.4c1.2,26.2,5.4,44.1,11.4,59.7    c6.3,16.2,14.7,29.9,28.4,43.6c13.7,13.7,27.4,22.1,43.6,28.4c15.6,6.1,33.5,10.2,59.7,11.4c26.2,1.2,34.6,1.5,101.4,1.5    s75.2-0.3,101.4-1.5c26.2-1.2,44.1-5.4,59.7-11.4c16.2-6.3,29.9-14.7,43.6-28.4c13.7-13.7,22.1-27.4,28.4-43.6    c6.1-15.6,10.2-33.5,11.4-59.7c1.2-26.2,1.5-34.6,1.5-101.4s-0.3-75.2-1.5-101.4c-1.2-26.2-5.4-44.1-11.4-59.7    C484,79,475.6,65.2,462,51.6c-13.7-13.7-27.4-22.1-43.6-28.4c-15.6-6.1-33.5-10.2-59.7-11.4C332.4,10.6,324,10.3,257.2,10.3    L257.2,10.3z"/><path class="st0" d="M257.2,130c-69.8,0-126.3,56.6-126.3,126.3s56.6,126.3,126.3,126.3s126.3-56.6,126.3-126.3S327,130,257.2,130    z M257.2,338.3c-45.3,0-82-36.7-82-82s36.7-82,82-82s82,36.7,82,82S302.5,338.3,257.2,338.3z"/><circle class="st0" cx="388.6" cy="125" r="29.5"/></g></g></svg>