<?xml version="1.0" encoding="utf-8"?>
<!-- Generator: Adobe Illustrator 16.0.0, SVG Export Plug-In . SVG Version: 6.00 Build 0)  -->
<!DOCTYPE svg PUBLIC "-//W3C//DTD SVG 1.1//EN" "http://www.w3.org/Graphics/SVG/1.1/DTD/svg11.dtd">
<svg version="1.1" id="Layer_1" xmlns="http://www.w3.org/2000/svg" xmlns:xlink="http://www.w3.org/1999/xlink" x="0px" y="0px"
	 width="212.042px" height="60.316px" viewBox="0 0 212.042 60.316" enable-background="new 0 0 212.042 60.316"
	 xml:space="preserve">
<g>
	<path fill-rule="evenodd" clip-rule="evenodd" fill="none" d="M212.042,32.78c0,9.18,0,18.357,0,27.536
		c-70.681,0-141.361,0-212.042,0C0,45.768,0,31.22,0,16.671c0.067,0.301,0.138,0.6,0.2,0.9c0.657,3.216,2.466,5.469,5.585,6.576
		c0.352,0.125,0.994,0.095,1.166-0.125c0.188-0.241,0.134-0.888-0.068-1.183c-1.847-2.701-2.111-5.685-1.643-8.795
		c0.524-3.493,1.778-6.679,4.158-9.351c0.35-0.393,0.78-0.716,1.386-1.264c0.051,0.722,0.104,1.111,0.102,1.5
		c-0.034,9.083-0.059,18.167-0.118,27.251c-0.027,4.113,0.104,8.25-1.348,12.214c-0.113,0.309-0.086,0.911,0.097,1.028
		c0.274,0.175,0.792,0.152,1.126,0.017c1.803-0.735,3.109-2.039,4.053-3.724c1.152-2.058,1.748-4.295,1.768-6.626
		c0.094-10.768,0.121-21.536,0.188-32.305c0.006-0.832-0.375-1.401-1.053-1.727C14.736,0.645,13.818,0.347,12.925,0
		c18.919,0,37.838,0,56.757,0c-0.655,0.393-0.864,1.013-0.891,1.73c-0.023,0.624-0.055,1.247-0.082,1.871
		c-0.067,1.612-0.134,3.224-0.199,4.794c-1.485,0-2.885,0.028-4.284-0.007c-1.849-0.047-2.183,0.19-2.548,2.017
		c-0.061,0.304-0.066,0.62-0.086,0.931c-0.055,0.855,0.292,1.243,1.206,1.217c1.77-0.051,3.54-0.015,5.412-0.015
		c0,0.547,0.001,0.851,0,1.155c-0.013,3.433-0.099,6.869-0.017,10.3c0.073,3.071-1.068,5.65-2.847,8.025
		c-0.439,0.586-0.972,1.101-1.46,1.648c0.46-3.583-1.226-6.018-3.817-8.02c-1.506-1.165-3.031-2.304-4.543-3.46
		C55.34,22.044,55.18,21.869,55,21.701c0.24-0.31,0.471-0.535,0.613-0.806c0.72-1.372,1.597-2.696,2.079-4.149
		c0.681-2.054-0.331-3.248-2.514-3.272c-2.448-0.028-4.149,1.224-5.256,3.292c-1.068,1.995-1.098,3.987,0.33,5.894
		c0.187,0.249,0.263,0.79,0.121,1.044c-1.779,3.183-3.592,6.35-5.44,9.493c-0.375,0.636-0.885,1.217-1.423,1.728
		c-0.911,0.866-1.578,0.67-1.831-0.545c-0.177-0.85-0.287-1.733-0.273-2.599c0.069-4.274,0.158-8.549,0.305-12.822
		c0.099-2.872-2.868-5.471-5.738-4.941c-1.749,0.323-2.924,1.469-3.949,2.8c-1.618,2.101-2.634,4.513-3.534,6.981
		c-0.453,1.241-0.907,2.48-1.361,3.721c-0.197-0.334-0.199-0.633-0.197-0.933c0.011-3.028,0.024-6.056,0.035-9.083
		c0.009-2.624-0.276-2.963-2.896-3.438c-0.276-0.05-0.553-0.104-0.832-0.128c-0.985-0.088-1.328,0.203-1.334,1.18
		c-0.048,6.93-0.104,13.859-0.112,20.789c-0.001,1.019,0.166,2.052,0.389,3.049c0.195,0.868,0.774,1.529,1.716,1.646
		c0.737,0.091,1.492,0.063,2.238,0.057c0.758-0.005,1.088-0.431,1.174-1.17c0.467-4.053,1.616-7.934,3.028-11.741
		c1.123-3.024,2.549-5.897,4.622-8.403c0.283-0.342,0.651-0.614,1.16-1.084c0,0.904,0.019,1.463-0.002,2.021
		c-0.125,3.306-0.3,6.61-0.378,9.917c-0.063,2.681-0.108,5.38,0.795,7.965c0.849,2.428,2.876,3.243,5.147,2.034
		c0.815-0.433,1.631-0.983,2.234-1.668c1.232-1.398,2.433-2.852,3.443-4.414c1.692-2.618,3.225-5.339,4.827-8.014
		c0.166-0.278,0.351-0.545,0.691-1.071c1.478,1.564,2.897,2.97,4.2,4.477c1.05,1.215,1.587,2.666,1.413,4.325
		c-0.262,2.505-2.199,3.584-4.414,2.422c-0.494-0.259-0.953-0.592-1.405-0.922c-1.6-1.17-2.321-1.04-3.4,0.648
		c-0.151,0.235-0.279,0.487-0.392,0.744c-0.637,1.445-0.459,2.146,0.982,2.782c3.774,1.67,7.602,1.92,11.37-0.008
		c3.192-1.631,5.026-4.483,6.538-7.589c0.137-0.281,0.282-0.559,0.542-1.075c0.049,0.459,0.061,0.613,0.082,0.768
		c0.327,2.459,0.828,4.853,2.355,6.91c1.575,2.121,5.199,3.425,7.805,0.586c1.061-1.155,1.849-2.563,2.729-3.877
		c0.251-0.375,0.391-0.824,0.639-1.367c1.139,3.484,2.646,6.507,6.676,6.804c3.874,0.284,6.291-2.033,8.209-5.209
		c0.574,2.812,2.027,4.751,4.842,5.165c3.199,0.474,5.015-1.482,6.354-4.195c1.42,2.612,3.323,4.345,6.388,4.278
		c2.933-0.064,5.013-1.679,6.789-3.941c0.415,2.228,0.39,2.236-1.083,3.634c-2.329,2.212-4.674,4.413-6.934,6.695
		c-1.299,1.313-2.346,2.836-2.894,4.646c-1.093,3.615,0.588,6.837,4.177,7.996c4.129,1.331,8.545-0.563,10.233-4.64
		c0.776-1.873,1.333-3.931,1.497-5.946c0.28-3.411,0.154-6.855,0.242-10.284c0.012-0.455,0.164-1.001,0.447-1.341
		c3.603-4.326,6.447-9.101,8.596-14.299c0.398-0.967,0.583-2.31,1.314-2.772c0.798-0.504,2.117-0.164,3.205-0.235
		c0.792-0.051,0.943,0.208,0.766,0.985c-0.907,3.943-1.418,7.927-0.808,11.972c0.404,2.68,1.396,5.057,3.818,6.571
		c2.568,1.604,5.261,1.18,7.197-1.141c0.468-0.561,0.848-1.193,1.309-1.851c1.563,2.786,3.802,4.35,7.063,3.874
		c3.118-0.455,5.136-2.465,6.709-5.237c0.671,2.849,2.134,4.774,4.96,5.25c3.053,0.514,4.679-1.387,5.954-4.093
		c0.095,0.975,0.21,1.619,0.206,2.264c-0.003,0.877,0.458,1.392,1.231,1.519c1.127,0.184,2.276,0.314,3.415,0.302
		c1.217-0.014,1.519-0.408,1.567-1.618c0.072-1.716,0.101-3.433,0.205-5.146c0.263-4.353,1.412-8.47,3.387-12.355
		c0.167-0.328,0.436-0.604,0.796-1.09c0.083,0.441,0.134,0.611,0.146,0.783c0.186,2.958,0.296,5.923,0.575,8.873
		c0.188,1.98,0.497,3.965,0.959,5.897c0.498,2.085,2.411,3.102,4.499,2.608c0.668-0.157,1.083-0.493,1.106-1.277
		c0.165-5.646,1.437-11.046,3.713-16.211c0.105-0.238,0.247-0.458,0.372-0.687c0.174,0.46,0.162,0.879,0.176,1.298
		c0.127,3.832,0.161,7.671,0.428,11.494c0.158,2.267,0.949,4.394,2.697,6.011c2.684,2.482,6.417,1.872,8.093-1.353
		c0.413-0.794,0.69-1.669,0.948-2.53C211.714,34.491,211.855,33.628,212.042,32.78z"/>
	<path fill-rule="evenodd" clip-rule="evenodd" d="M212.042,32.78c-0.187,0.849-0.328,1.711-0.576,2.541
		c-0.258,0.861-0.535,1.736-0.948,2.53c-1.676,3.225-5.409,3.835-8.093,1.353c-1.748-1.617-2.539-3.744-2.697-6.011
		c-0.267-3.822-0.301-7.662-0.428-11.494c-0.014-0.419-0.002-0.838-0.176-1.298c-0.125,0.228-0.267,0.449-0.372,0.687
		c-2.276,5.166-3.548,10.565-3.713,16.211c-0.023,0.784-0.438,1.12-1.106,1.277c-2.088,0.493-4.001-0.523-4.499-2.608
		c-0.462-1.933-0.771-3.917-0.959-5.897c-0.279-2.949-0.39-5.915-0.575-8.873c-0.012-0.172-0.063-0.342-0.146-0.783
		c-0.36,0.487-0.629,0.762-0.796,1.09c-1.975,3.885-3.124,8.002-3.387,12.355c-0.104,1.713-0.133,3.43-0.205,5.146
		c-0.049,1.21-0.351,1.604-1.567,1.618c-1.139,0.013-2.288-0.118-3.415-0.302c-0.773-0.127-1.234-0.642-1.231-1.519
		c0.004-0.645-0.111-1.289-0.206-2.264c-1.275,2.706-2.901,4.606-5.954,4.093c-2.826-0.476-4.289-2.401-4.96-5.25
		c-1.573,2.772-3.591,4.782-6.709,5.237c-3.262,0.476-5.501-1.088-7.063-3.874c-0.461,0.657-0.841,1.29-1.309,1.851
		c-1.937,2.32-4.629,2.745-7.197,1.141c-2.423-1.515-3.414-3.892-3.818-6.571c-0.61-4.045-0.1-8.029,0.808-11.972
		c0.178-0.777,0.026-1.036-0.766-0.985c-1.088,0.071-2.407-0.27-3.205,0.235c-0.731,0.462-0.916,1.805-1.314,2.772
		c-2.148,5.198-4.993,9.973-8.596,14.299c-0.283,0.34-0.436,0.886-0.447,1.341c-0.088,3.429,0.038,6.873-0.242,10.284
		c-0.164,2.016-0.721,4.073-1.497,5.946c-1.688,4.076-6.104,5.971-10.233,4.64c-3.589-1.159-5.27-4.381-4.177-7.996
		c0.548-1.81,1.595-3.333,2.894-4.646c2.26-2.282,4.604-4.483,6.934-6.695c1.473-1.397,1.498-1.406,1.083-3.634
		c-1.776,2.263-3.856,3.877-6.789,3.941c-3.064,0.066-4.968-1.666-6.388-4.278c-1.339,2.713-3.154,4.669-6.354,4.195
		c-2.814-0.414-4.268-2.354-4.842-5.165c-1.918,3.176-4.335,5.493-8.209,5.209c-4.03-0.297-5.538-3.32-6.676-6.804
		c-0.249,0.542-0.388,0.992-0.639,1.367c-0.88,1.313-1.668,2.722-2.729,3.877c-2.606,2.839-6.23,1.535-7.805-0.586
		c-1.527-2.058-2.029-4.451-2.355-6.91c-0.021-0.154-0.033-0.308-0.082-0.768c-0.261,0.517-0.406,0.794-0.542,1.075
		c-1.512,3.105-3.346,5.958-6.538,7.589c-3.768,1.928-7.596,1.678-11.37,0.008c-1.441-0.637-1.619-1.337-0.982-2.782
		c0.113-0.257,0.241-0.509,0.392-0.744c1.08-1.688,1.801-1.818,3.4-0.648c0.452,0.33,0.911,0.663,1.405,0.922
		c2.215,1.162,4.152,0.083,4.414-2.422c0.174-1.659-0.362-3.11-1.413-4.325c-1.303-1.507-2.722-2.912-4.2-4.477
		c-0.341,0.526-0.525,0.793-0.691,1.071c-1.603,2.675-3.135,5.396-4.827,8.014c-1.01,1.563-2.21,3.016-3.443,4.414
		c-0.603,0.685-1.419,1.235-2.234,1.668c-2.271,1.209-4.298,0.394-5.147-2.034c-0.903-2.585-0.858-5.284-0.795-7.965
		c0.079-3.307,0.253-6.611,0.378-9.917c0.021-0.558,0.002-1.118,0.002-2.021c-0.509,0.471-0.877,0.742-1.16,1.084
		c-2.073,2.506-3.5,5.379-4.622,8.403c-1.412,3.807-2.561,7.688-3.028,11.741c-0.085,0.739-0.416,1.165-1.174,1.17
		c-0.747,0.006-1.501,0.034-2.238-0.057c-0.942-0.116-1.521-0.777-1.716-1.646c-0.223-0.997-0.39-2.03-0.389-3.049
		c0.008-6.93,0.064-13.859,0.112-20.789c0.006-0.977,0.349-1.268,1.334-1.18c0.279,0.024,0.556,0.079,0.832,0.128
		c2.619,0.475,2.905,0.814,2.896,3.438c-0.011,3.028-0.023,6.056-0.035,9.083c-0.001,0.299,0,0.598,0.197,0.933
		c0.454-1.241,0.908-2.48,1.361-3.721c0.899-2.468,1.916-4.88,3.534-6.981c1.025-1.331,2.2-2.477,3.949-2.8
		c2.871-0.53,5.837,2.069,5.738,4.941c-0.147,4.273-0.235,8.548-0.305,12.822c-0.014,0.866,0.096,1.749,0.273,2.599
		c0.253,1.215,0.92,1.411,1.831,0.545c0.538-0.511,1.048-1.092,1.423-1.728c1.848-3.144,3.661-6.31,5.44-9.493
		c0.143-0.255,0.066-0.795-0.121-1.044c-1.427-1.907-1.397-3.899-0.33-5.894c1.107-2.068,2.808-3.319,5.256-3.292
		c2.183,0.025,3.194,1.219,2.514,3.272c-0.482,1.454-1.359,2.777-2.079,4.149c-0.142,0.271-0.373,0.496-0.613,0.806
		c0.18,0.168,0.34,0.344,0.525,0.486c1.512,1.156,3.037,2.296,4.543,3.46c2.591,2.002,4.277,4.437,3.817,8.02
		c0.489-0.547,1.021-1.063,1.46-1.648c1.779-2.375,2.92-4.954,2.847-8.025c-0.082-3.432,0.004-6.867,0.017-10.3
		c0.001-0.305,0-0.608,0-1.155c-1.872,0-3.643-0.036-5.412,0.015c-0.914,0.026-1.26-0.362-1.206-1.217
		c0.02-0.312,0.025-0.627,0.086-0.931c0.365-1.827,0.7-2.064,2.548-2.017c1.398,0.036,2.798,0.007,4.284,0.007
		c0.065-1.571,0.132-3.182,0.199-4.794c0.026-0.624,0.059-1.247,0.082-1.871c0.026-0.718,0.236-1.338,0.891-1.73
		c0.312,0,0.625,0,0.937,0c0.746,0.205,1.497,0.392,2.236,0.617c2.066,0.629,2.135,0.737,2,2.869
		c-0.036,0.561-0.092,1.121-0.1,1.682c-0.015,1.174-0.005,2.347-0.005,3.578c0.357,0.026,0.693,0.054,1.03,0.075
		c1.993,0.123,3.988,0.222,5.978,0.387c0.345,0.028,0.854,0.252,0.969,0.521c0.575,1.35-0.531,2.998-1.966,3.007
		c-2.05,0.014-4.1,0.004-6.138,0.004c-0.055,0.325-0.089,0.445-0.093,0.567c-0.157,5.366-0.391,10.731-0.423,16.099
		c-0.011,1.874,0.296,3.799,0.785,5.612c0.507,1.883,1.813,2.15,3.227,0.786c2.003-1.934,3.059-4.359,3.34-7.128
		c0.196-1.92,0.305-3.858,0.64-5.755c0.533-3.013,1.758-5.736,4.074-7.826c2.329-2.101,5.599-2.217,7.984-0.342
		c0.573,0.451,1.066,1.006,1.611,1.527c0.328-1.884,0.671-2.13,2.637-1.826c0.521,0.08,1.04,0.22,1.536,0.399
		c1.209,0.439,1.412,0.771,1.395,2.079c-0.064,4.837-0.196,9.675-0.154,14.512c0.013,1.531,0.355,3.098,0.79,4.577
		c0.385,1.311,1.659,1.756,2.679,1.195c1.112-0.612,2.475-3.251,2.271-4.512c-0.508-3.152-0.378-6.292,0.251-9.4
		c0.602-2.972,1.658-5.773,3.869-7.961c2.705-2.677,6.671-2.524,9.226,0.29c0.202,0.222,0.398,0.45,0.637,0.72
		c0.297-1.861,0.709-2.171,2.561-1.908c0.582,0.083,1.15,0.277,1.72,0.431c0.987,0.267,1.341,0.866,1.318,1.928
		c-0.112,5.337-0.146,10.675-0.203,16.012c-0.003,0.289,0.034,0.578,0.068,1.125c2.917-4.195,5.058-8.452,6.231-13.162
		c0.057-0.221-0.127-0.602-0.319-0.77c-2.14-1.866-1.186-5.158,0.321-6.404c0.992-0.821,2.713-1.066,3.79-0.475
		c1.226,0.673,1.286,1.802,1.128,3.01c-0.036,0.267-0.006,0.542-0.006,0.85c0.17-0.012,0.29-0.009,0.406-0.029
		c1.748-0.314,3.492-0.66,5.246-0.94c2.392-0.383,3.814,1.019,3.479,3.412c-0.104,0.738-0.305,1.464-0.471,2.193
		c-0.796,3.509-1.503,7.043-0.98,10.654c0.2,1.389,0.64,2.793,1.242,4.063c0.556,1.17,1.667,1.37,2.7,0.816
		c1.086-0.584,2.217-2.801,1.998-4.006c-0.585-3.232-0.507-6.46,0.053-9.682c0.489-2.815,1.533-5.405,3.405-7.591
		c2.794-3.263,7.111-3.258,9.932-0.037c0.131,0.149,0.288,0.274,0.472,0.448c0.18-1.762,0.522-2.064,2.214-1.875
		c0.675,0.076,1.355,0.233,1.996,0.461c1.232,0.441,1.399,0.783,1.371,2.096c-0.1,4.493-0.254,8.987-0.233,13.481
		c0.008,1.789,0.246,3.619,0.686,5.354c0.492,1.939,2.271,2.226,3.512,0.646c1.379-1.753,2.241-3.793,2.306-6.02
		c0.138-4.68,0.129-9.364,0.175-14.046c0.025-2.556,0.224-2.714,2.789-2.166c2.521,0.539,2.519,0.539,2.514,3.115
		c-0.004,2.418-0.001,4.835-0.001,7.252c0.289-0.262,0.398-0.567,0.508-0.871c0.914-2.551,1.751-5.134,2.769-7.644
		c0.913-2.249,1.891-2.586,4.199-1.775c0.176,0.062,0.353,0.128,0.522,0.203c1.457,0.637,2.268,1.704,2.243,3.34
		c-0.011,0.718-0.014,1.438,0.021,2.154c0.144,2.952,0.302,5.903,0.464,9.023c0.196-0.221,0.261-0.261,0.271-0.312
		c0.07-0.336,0.131-0.674,0.192-1.011c0.771-4.252,2.112-8.333,3.771-12.313c0.497-1.192,1.298-1.625,2.546-1.344
		c0.902,0.204,1.794,0.526,2.634,0.916c1.762,0.816,2.062,1.522,2.023,3.471c-0.084,4.273-0.196,8.552-0.064,12.822
		c0.05,1.633,0.537,3.331,1.185,4.844c0.669,1.569,2.263,1.507,3.079-0.002c0.425-0.784,0.667-1.671,0.951-2.525
		c0.236-0.708,0.363-1.455,0.641-2.144c0.104-0.255,0.499-0.543,0.76-0.542c0.259,0.001,0.547,0.318,0.763,0.551
		c0.138,0.147,0.168,0.395,0.245,0.597C212.042,32.281,212.042,32.53,212.042,32.78z M95.866,25.648
		c-0.076-1.904-0.065-4.045-1.064-5.998c-1.212-2.371-3.895-2.655-5.461-0.501c-0.679,0.933-1.165,2.07-1.486,3.187
		c-0.766,2.661-0.892,5.412-0.715,8.165c0.117,1.81,0.375,3.611,1.325,5.21c1.093,1.843,2.865,2.127,4.34,0.576
		c0.752-0.791,1.348-1.801,1.781-2.811C95.625,31.059,95.774,28.459,95.866,25.648z M112.042,28.057
		c0.05,0.015,0.098,0.03,0.146,0.045c0.07,1.182,0.029,2.386,0.241,3.542c0.246,1.335,0.552,2.707,1.126,3.923
		c0.968,2.05,2.92,2.324,4.475,0.657c0.722-0.774,1.301-1.766,1.681-2.759c1.281-3.354,1.513-6.867,1.178-10.411
		c-0.108-1.134-0.337-2.3-0.763-3.35c-0.897-2.211-3.373-2.701-5.005-0.955c-0.781,0.837-1.454,1.926-1.77,3.018
		C112.76,23.82,112.462,25.956,112.042,28.057z M165.049,25.991c0.004-2.126-0.059-4.253-0.981-6.221
		c-1.166-2.493-3.935-2.834-5.545-0.603c-0.724,1.003-1.213,2.25-1.528,3.458c-0.705,2.703-0.746,5.49-0.56,8.264
		c0.12,1.772,0.377,3.543,1.403,5.073c1.015,1.515,2.572,1.814,3.896,0.573c0.813-0.762,1.496-1.764,1.954-2.786
		C164.789,31.3,165.058,28.66,165.049,25.991z M121.576,43.08c-2.721,2.81-5.383,5.319-6.882,8.726
		c-0.391,0.89-0.621,1.913-0.651,2.885c-0.077,2.422,2.008,3.707,4.233,2.728c1.41-0.62,1.963-1.86,2.354-3.194
		C121.669,50.676,121.629,47.03,121.576,43.08z"/>
	<path fill-rule="evenodd" clip-rule="evenodd" fill="none" d="M212.042,32.032c-0.077-0.202-0.107-0.45-0.245-0.597
		c-0.216-0.233-0.504-0.55-0.763-0.551c-0.261-0.001-0.656,0.287-0.76,0.542c-0.277,0.688-0.404,1.436-0.641,2.144
		c-0.284,0.854-0.526,1.741-0.951,2.525c-0.816,1.509-2.41,1.571-3.079,0.002c-0.647-1.514-1.135-3.211-1.185-4.844
		c-0.132-4.27-0.02-8.548,0.064-12.822c0.038-1.949-0.262-2.655-2.023-3.471c-0.84-0.39-1.731-0.712-2.634-0.916
		c-1.248-0.282-2.049,0.152-2.546,1.344c-1.659,3.979-3,8.06-3.771,12.313c-0.062,0.337-0.122,0.675-0.192,1.011
		c-0.011,0.051-0.075,0.09-0.271,0.312c-0.162-3.12-0.32-6.071-0.464-9.023c-0.034-0.717-0.031-1.436-0.021-2.154
		c0.024-1.637-0.786-2.703-2.243-3.34c-0.17-0.075-0.347-0.142-0.522-0.203c-2.309-0.811-3.286-0.474-4.199,1.775
		c-1.018,2.509-1.854,5.092-2.769,7.644c-0.109,0.304-0.219,0.608-0.508,0.871c0-2.417-0.003-4.834,0.001-7.252
		c0.005-2.577,0.007-2.577-2.514-3.115c-2.565-0.548-2.764-0.391-2.789,2.166c-0.046,4.682-0.037,9.366-0.175,14.046
		c-0.064,2.227-0.927,4.267-2.306,6.02c-1.241,1.579-3.02,1.293-3.512-0.646c-0.439-1.735-0.678-3.566-0.686-5.354
		c-0.021-4.494,0.134-8.988,0.233-13.481c0.028-1.313-0.139-1.655-1.371-2.096c-0.641-0.228-1.321-0.385-1.996-0.461
		c-1.691-0.189-2.034,0.113-2.214,1.875c-0.184-0.173-0.341-0.299-0.472-0.448c-2.82-3.221-7.138-3.226-9.932,0.037
		c-1.872,2.186-2.916,4.775-3.405,7.591c-0.56,3.222-0.638,6.449-0.053,9.682c0.219,1.206-0.912,3.422-1.998,4.006
		c-1.033,0.554-2.145,0.354-2.7-0.816c-0.603-1.27-1.042-2.674-1.242-4.063c-0.522-3.611,0.185-7.145,0.98-10.654
		c0.166-0.729,0.366-1.455,0.471-2.193c0.336-2.394-1.087-3.795-3.479-3.412c-1.754,0.281-3.498,0.626-5.246,0.94
		c-0.116,0.021-0.236,0.018-0.406,0.029c0-0.307-0.03-0.583,0.006-0.85c0.158-1.208,0.098-2.336-1.128-3.01
		c-1.077-0.592-2.798-0.347-3.79,0.475c-1.507,1.246-2.461,4.538-0.321,6.404c0.192,0.168,0.376,0.548,0.319,0.77
		c-1.174,4.71-3.314,8.967-6.231,13.162c-0.034-0.547-0.071-0.835-0.068-1.125c0.058-5.337,0.091-10.675,0.203-16.012
		c0.022-1.062-0.331-1.661-1.318-1.928c-0.569-0.154-1.138-0.349-1.72-0.431c-1.852-0.263-2.264,0.047-2.561,1.908
		c-0.238-0.271-0.435-0.498-0.637-0.72c-2.555-2.814-6.521-2.967-9.226-0.29c-2.211,2.188-3.268,4.989-3.869,7.961
		c-0.629,3.109-0.759,6.248-0.251,9.4c0.203,1.261-1.159,3.9-2.271,4.512c-1.02,0.561-2.294,0.115-2.679-1.195
		c-0.435-1.479-0.777-3.046-0.79-4.577c-0.042-4.837,0.09-9.675,0.154-14.512c0.018-1.308-0.186-1.639-1.395-2.079
		c-0.496-0.179-1.016-0.319-1.536-0.399c-1.966-0.304-2.309-0.059-2.637,1.826c-0.545-0.521-1.038-1.076-1.611-1.527
		c-2.385-1.875-5.655-1.759-7.984,0.342c-2.316,2.09-3.541,4.813-4.074,7.826c-0.335,1.897-0.443,3.834-0.64,5.755
		c-0.282,2.769-1.337,5.194-3.34,7.128c-1.413,1.364-2.72,1.097-3.227-0.786c-0.489-1.813-0.795-3.738-0.785-5.612
		c0.033-5.367,0.266-10.733,0.423-16.099c0.003-0.122,0.038-0.242,0.093-0.567c2.039,0,4.088,0.01,6.138-0.004
		c1.436-0.01,2.541-1.658,1.966-3.007c-0.115-0.269-0.624-0.493-0.969-0.521c-1.99-0.165-3.985-0.265-5.978-0.387
		c-0.337-0.021-0.673-0.048-1.03-0.075c0-1.23-0.01-2.404,0.005-3.578c0.008-0.561,0.063-1.122,0.1-1.682
		c0.136-2.132,0.066-2.24-2-2.869C72.115,0.392,71.364,0.205,70.618,0C117.76,0,164.9,0,212.042,0
		C212.042,10.688,212.042,21.36,212.042,32.032z"/>
	<path fill-rule="evenodd" clip-rule="evenodd" d="M12.925,0c0.894,0.347,1.811,0.645,2.673,1.058
		c0.679,0.326,1.059,0.895,1.053,1.727c-0.067,10.769-0.094,21.537-0.188,32.305c-0.021,2.331-0.616,4.568-1.768,6.626
		c-0.943,1.685-2.25,2.988-4.053,3.724c-0.333,0.136-0.852,0.158-1.126-0.017c-0.183-0.117-0.209-0.72-0.097-1.028
		c1.451-3.965,1.321-8.102,1.348-12.214c0.059-9.084,0.084-18.167,0.118-27.251c0.001-0.389-0.051-0.778-0.102-1.5
		C10.178,3.977,9.748,4.3,9.398,4.693c-2.38,2.671-3.634,5.858-4.158,9.351c-0.468,3.111-0.204,6.094,1.643,8.795
		c0.202,0.295,0.257,0.942,0.068,1.183c-0.172,0.22-0.814,0.25-1.166,0.125c-3.12-1.107-4.929-3.36-5.585-6.576
		c-0.062-0.301-0.133-0.6-0.2-0.9c0-0.374,0-0.749,0-1.124c0.273-1.174,0.444-2.383,0.837-3.515C2.725,6.591,6.111,2.439,11.427,0
		C11.926,0,12.425,0,12.925,0z"/>
	<path fill-rule="evenodd" clip-rule="evenodd" fill="none" d="M11.427,0C6.111,2.439,2.725,6.591,0.837,12.033
		C0.444,13.165,0.273,14.374,0,15.547C0,10.383,0,5.218,0,0C3.809,0,7.618,0,11.427,0z"/>
	<path fill-rule="evenodd" clip-rule="evenodd" fill="none" d="M95.866,25.648c-0.092,2.812-0.241,5.411-1.28,7.828
		c-0.434,1.01-1.029,2.02-1.781,2.811c-1.476,1.551-3.248,1.267-4.34-0.576c-0.95-1.599-1.208-3.4-1.325-5.21
		c-0.177-2.753-0.051-5.504,0.715-8.165c0.322-1.117,0.808-2.253,1.486-3.187c1.567-2.154,4.25-1.87,5.461,0.501
		C95.801,21.603,95.79,23.744,95.866,25.648z"/>
	<path fill-rule="evenodd" clip-rule="evenodd" fill="none" d="M112.042,28.057c0.42-2.102,0.718-4.237,1.31-6.289
		c0.315-1.092,0.988-2.181,1.77-3.018c1.632-1.746,4.107-1.257,5.005,0.955c0.426,1.049,0.654,2.216,0.763,3.35
		c0.335,3.543,0.104,7.056-1.178,10.411c-0.38,0.994-0.959,1.985-1.681,2.759c-1.555,1.667-3.507,1.393-4.475-0.657
		c-0.574-1.217-0.88-2.588-1.126-3.923c-0.212-1.156-0.171-2.36-0.241-3.542C112.14,28.087,112.092,28.072,112.042,28.057z"/>
	<path fill-rule="evenodd" clip-rule="evenodd" fill="none" d="M165.048,25.992c0.01,2.668-0.259,5.308-1.359,7.758
		c-0.458,1.022-1.141,2.024-1.954,2.786c-1.324,1.241-2.882,0.941-3.896-0.573c-1.026-1.529-1.283-3.301-1.403-5.073
		c-0.187-2.774-0.146-5.561,0.56-8.264c0.315-1.209,0.805-2.456,1.528-3.458c1.61-2.232,4.379-1.89,5.545,0.603
		C164.99,21.737,165.053,23.865,165.048,25.992z"/>
	<path fill-rule="evenodd" clip-rule="evenodd" fill="none" d="M121.576,43.08c0.053,3.95,0.093,7.597-0.945,11.144
		c-0.392,1.334-0.944,2.574-2.354,3.194c-2.226,0.979-4.311-0.306-4.233-2.728c0.03-0.972,0.261-1.995,0.651-2.885
		C116.193,48.399,118.855,45.889,121.576,43.08z"/>
</g>
</svg>
