<svg width="158" height="155" viewBox="0 0 158 155" fill="none" xmlns="http://www.w3.org/2000/svg">
<path d="M128.609 100.28L130.488 101.93L128.609 100.28ZM29.5517 100.28L31.43 98.6303L29.5517 100.28ZM81.85 25.4874C93.5181 12.6511 105.908 6.76291 116.837 5.94506C127.747 5.12866 137.401 9.33543 143.863 17.105C156.718 32.5604 157.633 63.4459 126.731 98.6303L130.488 101.93C162.201 65.8226 162.812 32.0679 147.708 13.9077C140.19 4.86943 128.952 0.0244625 116.464 0.959003C103.995 1.8921 90.482 8.55759 78.1501 22.1242L81.85 25.4874ZM126.731 98.6303C118.766 107.698 91.1234 137.36 77.5081 148.375L80.6528 152.262C94.6375 140.949 122.532 110.988 130.488 101.93L126.731 98.6303ZM77.5081 148.375C76.7636 148.977 76.0693 149.517 75.4298 149.989L78.4005 154.011C79.1105 153.486 79.8636 152.9 80.6528 152.262L77.5081 148.375ZM83.0621 23.558C69.5673 9.28798 55.2998 2.17308 42.346 0.950448C29.36 -0.275243 17.8589 4.45323 10.2259 13.5173C-5.08702 31.7013 -4.01748 65.8479 27.6733 101.93L31.43 98.6303C0.505269 63.4205 1.04897 32.1771 14.0505 16.738C20.5748 8.99041 30.441 4.84901 41.8762 5.92832C53.3437 7.01069 66.5513 13.3757 79.4293 26.9935L83.0621 23.558ZM27.6733 101.93C35.629 110.988 63.5234 140.949 77.5081 152.262L80.6528 148.375C67.0375 137.36 39.3944 107.698 31.43 98.6303L27.6733 101.93ZM77.5081 152.262C78.2973 152.9 79.0504 153.486 79.7604 154.011L82.7311 149.989C82.0916 149.517 81.3973 148.977 80.6528 148.375L77.5081 152.262Z" fill="black"/>
</svg>
