<svg width="156" height="154" viewBox="0 0 156 154" fill="none" xmlns="http://www.w3.org/2000/svg">
<path d="M114.431 45.2643C114.431 67.3785 97.6519 85.0287 77.2843 85.0287V90.0287C100.71 90.0287 119.431 69.834 119.431 45.2643H114.431ZM77.2843 85.0287C56.9168 85.0287 40.1374 67.3785 40.1374 45.2643H35.1374C35.1374 69.834 53.8591 90.0287 77.2843 90.0287V85.0287ZM40.1374 45.2643C40.1374 23.1501 56.9168 5.5 77.2843 5.5V0.5C53.8591 0.5 35.1374 20.6946 35.1374 45.2643H40.1374ZM77.2843 5.5C97.6519 5.5 114.431 23.1501 114.431 45.2643H119.431C119.431 20.6946 100.71 0.5 77.2843 0.5V5.5ZM5.49997 153.013C5.57849 137.754 7.25459 127.275 10.3428 120.058C13.3707 112.983 17.7693 109.003 23.6235 106.685C29.6452 104.3 37.3279 103.623 46.9924 103.559C51.7987 103.527 57.0048 103.644 62.6703 103.751C68.3217 103.857 74.403 103.952 80.8935 103.872L80.8317 98.8726C74.4242 98.9518 68.4087 98.8579 62.7645 98.7515C57.1344 98.6454 51.8461 98.5261 46.9591 98.5588C37.2371 98.6237 28.7379 99.2815 21.7826 102.036C14.6597 104.856 9.28585 109.82 5.74607 118.091C2.26664 126.221 0.57977 137.492 0.500033 152.987L5.49997 153.013ZM155.5 152.987C155.421 137.493 153.746 126.225 150.294 118.097C146.781 109.829 141.446 104.862 134.368 102.038C127.458 99.2814 119.016 98.6237 109.364 98.5588C104.513 98.5261 99.2627 98.6454 93.6742 98.7515C88.0716 98.8579 82.1008 98.9518 75.741 98.8726L75.6788 103.872C82.1222 103.952 88.1592 103.857 93.7691 103.751C99.3933 103.644 104.56 103.527 109.331 103.559C118.924 103.623 126.544 104.3 132.516 106.682C138.319 108.997 142.685 112.974 145.692 120.052C148.758 127.271 150.422 137.753 150.5 153.013L155.5 152.987Z" fill="black"/>
</svg>
