<svg width="156" height="156" viewBox="0 0 156 156" fill="none" xmlns="http://www.w3.org/2000/svg">
<path d="M150.5 78C150.5 118.041 118.041 150.5 78 150.5V155.5C120.802 155.5 155.5 120.802 155.5 78H150.5ZM78 150.5C37.9594 150.5 5.5 118.041 5.5 78H0.5C0.5 120.802 35.1979 155.5 78 155.5V150.5ZM5.5 78C5.5 37.9594 37.9594 5.5 78 5.5V0.5C35.1979 0.5 0.5 35.1979 0.5 78H5.5ZM78 5.5C118.041 5.5 150.5 37.9594 150.5 78H155.5C155.5 35.1979 120.802 0.5 78 0.5V5.5ZM38.6758 118.314L67.7836 60.6136L63.3195 58.3616L34.2117 116.062L38.6758 118.314ZM37.4691 118.9L96.2803 90.6221L94.1136 86.1159L35.3024 114.394L37.4691 118.9ZM66.4081 62.2003L120.383 38.3169L118.36 33.7446L64.3849 57.628L66.4081 62.2003ZM97.0389 89.8123L121.238 37.5119L116.7 35.4123L92.5011 87.7127L97.0389 89.8123Z" fill="black"/>
</svg>
