<svg xmlns="http://www.w3.org/2000/svg" style="display: none;"><symbol id="compass" viewBox="0 0 265.404 265.404"><title>compass</title><path style="fill:#000002;" d="M132.702,0C59.53,0,0,59.53,0,132.702c0,73.172,59.529,132.702,132.701,132.702 c73.172,0,132.702-59.53,132.702-132.702C265.404,59.53,205.874,0,132.702,0z M132.702,250.404 C67.801,250.404,15,197.604,15,132.702C15,67.801,67.801,15,132.702,15c64.901,0,117.702,52.801,117.702,117.702 C250.404,197.604,197.603,250.404,132.702,250.404z"/><path style="fill:#000002;" d="M185.691,71.261c-1.224,0-2.469,0.248-3.703,0.736l-72.993,28.893 c-3.474,1.375-6.731,4.633-8.106,8.106l-28.893,72.992c-1.184,2.994-0.921,6.097,0.721,8.514c1.55,2.28,4.165,3.642,6.995,3.642 c1.224,0,2.47-0.247,3.703-0.736l72.985-28.89c3.476-1.371,6.737-4.631,8.114-8.108l28.893-72.994 c1.184-2.993,0.921-6.096-0.722-8.513C191.136,72.622,188.521,71.261,185.691,71.261z M150.685,150.592 c-0.028,0.031-0.061,0.064-0.092,0.092l-59.376,23.504l23.502-59.373c0.03-0.032,0.063-0.065,0.095-0.095l59.374-23.502 L150.685,150.592z"/></symbol><symbol id="profile" viewBox="0 0 563.43 563.43"><title>profile</title><path d="M280.79,314.559c83.266,0,150.803-67.538,150.803-150.803S364.055,13.415,280.79,13.415S129.987,80.953,129.987,163.756 S197.524,314.559,280.79,314.559z M280.79,52.735c61.061,0,111.021,49.959,111.021,111.021S341.851,274.776,280.79,274.776 s-111.021-49.959-111.021-111.021S219.728,52.735,280.79,52.735z"/><path d="M19.891,550.015h523.648c11.102,0,19.891-8.789,19.891-19.891c0-104.082-84.653-189.198-189.198-189.198H189.198 C85.116,340.926,0,425.579,0,530.124C0,541.226,8.789,550.015,19.891,550.015z M189.198,380.708h185.034 c75.864,0,138.313,56.436,148.028,129.524H41.17C50.884,437.607,113.334,380.708,189.198,380.708z"/></symbol><symbol id="instagram" viewBox="0 0 512 512"><title>instagram</title><g> <g> <path d="M373.659,0H138.341C62.06,0,0,62.06,0,138.341v235.318C0,449.94,62.06,512,138.341,512h235.318 C449.94,512,512,449.94,512,373.659V138.341C512,62.06,449.94,0,373.659,0z M470.636,373.659 c0,53.473-43.503,96.977-96.977,96.977H138.341c-53.473,0-96.977-43.503-96.977-96.977V138.341 c0-53.473,43.503-96.977,96.977-96.977h235.318c53.473,0,96.977,43.503,96.977,96.977V373.659z"/> </g> </g><g> <g> <path d="M370.586,238.141c-3.64-24.547-14.839-46.795-32.386-64.342c-17.547-17.546-39.795-28.746-64.341-32.385 c-11.176-1.657-22.507-1.657-33.682,0c-30.336,4.499-57.103,20.541-75.372,45.172c-18.269,24.631-25.854,54.903-21.355,85.237 c4.499,30.335,20.541,57.102,45.172,75.372c19.996,14.831,43.706,22.619,68.153,22.619c5.667,0,11.375-0.418,17.083-1.265 c30.336-4.499,57.103-20.541,75.372-45.172C367.5,298.747,375.085,268.476,370.586,238.141z M267.791,327.632 c-19.405,2.882-38.77-1.973-54.527-13.66c-15.757-11.687-26.019-28.811-28.896-48.216c-2.878-19.405,1.973-38.77,13.66-54.527 c11.688-15.757,28.811-26.019,48.217-28.897c3.574-0.53,7.173-0.795,10.772-0.795s7.199,0.265,10.773,0.796 c32.231,4.779,57.098,29.645,61.878,61.877C335.608,284.268,307.851,321.692,267.791,327.632z"/> </g> </g><g> <g> <path d="M400.049,111.951c-3.852-3.851-9.183-6.058-14.625-6.058c-5.442,0-10.773,2.206-14.625,6.058 c-3.851,3.852-6.058,9.174-6.058,14.625c0,5.451,2.207,10.773,6.058,14.625c3.852,3.851,9.183,6.058,14.625,6.058 c5.442,0,10.773-2.206,14.625-6.058c3.851-3.852,6.058-9.183,6.058-14.625C406.107,121.133,403.9,115.802,400.049,111.951z"/> </g> </g></symbol><symbol id="search" viewBox="0 0 451 451"><title>search</title><path d="M447.05,428l-109.6-109.6c29.4-33.8,47.2-77.9,47.2-126.1C384.65,86.2,298.35,0,192.35,0C86.25,0,0.05,86.3,0.05,192.3 s86.3,192.3,192.3,192.3c48.2,0,92.3-17.8,126.1-47.2L428.05,447c2.6,2.6,6.1,4,9.5,4s6.9-1.3,9.5-4 C452.25,441.8,452.25,433.2,447.05,428z M26.95,192.3c0-91.2,74.2-165.3,165.3-165.3c91.2,0,165.3,74.2,165.3,165.3 s-74.1,165.4-165.3,165.4C101.15,357.7,26.95,283.5,26.95,192.3z"/></symbol></svg>